<svg width="536" height="516" viewBox="0 0 536 516" fill="none" xmlns="http://www.w3.org/2000/svg">
<path d="M157.375 469.814C198.369 489.611 304.595 527.59 390.085 511.972C413.733 507.647 435.834 494.861 450.532 475.339C482.589 432.757 456.048 392.967 434.085 358.331C416.664 330.851 401.198 295.256 418.184 265.515C430.589 243.805 455.844 233.559 477.378 220.757C505.084 204.271 530.492 178.384 534.525 147.072C539.606 107.752 508.906 73.5037 473.211 58.5517C437.532 43.6053 397.078 42.6894 358.438 36.4232C303.201 27.4851 250.639 7.36535 194.811 1.5221C138.982 -4.32116 75.704 7.24677 36.7237 50.2888C6.0481 84.1851 -4.15378 132.443 1.50604 176.064C7.18729 219.675 26.9835 259.438 49.7737 296.184C67.9918 325.571 88.8637 355.11 92.3356 390.169C94.6491 413.466 84.1381 397.452 95.8442 417.232C108.721 439.038 134.496 458.76 157.375 469.814Z" fill="#FFFDFD"/>
</svg>
