<svg width="484" height="336" viewBox="0 0 484 336" fill="none" xmlns="http://www.w3.org/2000/svg">
<path d="M163.69 20.9644C199.735 28.5762 238.008 25.6161 273.545 12.986C366.421 -20.0269 442.84 22.7405 462.047 49.6639C484.343 80.943 488.023 122.089 477.7 159.698C467.378 197.306 444.166 231.644 416.328 261.513C394.569 284.856 369.143 306.282 338.725 318.447C308.997 330.344 276.422 332.684 244.593 334.291C203.655 336.349 162.012 337.406 123.005 327.821C91.2052 320.026 58.5448 300.743 55.7667 270.309C53.4117 244.373 73.7892 218.845 70.9405 192.964C66.9638 156.723 21.3859 138.779 6.32489 105.611C-11.2463 66.9175 11.0491 24.3051 41.5518 15.1709C73.352 5.64199 123.739 12.5209 163.69 20.9644Z" fill="#FFFDFD"/>
</svg>
