<svg width="30" height="29" viewBox="0 0 30 29" fill="none" xmlns="http://www.w3.org/2000/svg">
<path d="M9.345 4.03512H9.48842L9.61004 3.9591L15 0.589659L20.39 3.9591L20.5116 4.03512H20.655H25V6.53099V6.80588L25.2321 6.95316L28.2771 8.8855L28.277 8.88561L28.2869 8.89158C29.0153 9.33052 29.5 10.1163 29.5 11.0248V26.0041C29.5 27.39 28.3895 28.5 27 28.5H3C2.33674 28.5 1.70078 28.2369 1.23199 27.7687C0.763224 27.3006 0.5 26.6659 0.5 26.0041V11.0248C0.5 10.1163 0.984684 9.33052 1.71307 8.89158L1.71314 8.89169L1.72291 8.8855L4.76791 6.95316L5 6.80588V6.53099V4.03512H9.345ZM7.5 6.03099H7V6.53099V13.8409V14.1185L7.23557 14.2653L14.7356 18.9388L15 19.1036L15.2644 18.9388L22.7644 14.2653L23 14.1185V13.8409V6.53099V6.03099H22.5H7.5ZM5 10.0961V9.19842L4.23679 9.67096L2.73679 10.5997L2.05566 11.0214L2.73374 11.448L4.23374 12.3917L5 12.8738V11.9685V10.0961ZM25.7632 9.67096L25 9.19842V10.0961V11.9685V12.8738L25.7663 12.3917L27.2663 11.448L27.9443 11.0214L27.2632 10.5997L25.7632 9.67096ZM20.5 9.77583H9.5V8.52893H20.5V9.77583ZM20.5 13.5207H9.5V12.2738H20.5V13.5207Z" fill="white" stroke="#8F82A3"/>
</svg>
