<svg width="354" height="190" viewBox="0 0 354 190" fill="none" xmlns="http://www.w3.org/2000/svg">
<path d="M342.22 20.3911H319.732C316.854 20.3911 314.552 22.7344 314.552 25.5711V34.7389V37.9455V48.0177L319.856 43.1666H342.261C345.139 43.1666 347.441 40.8233 347.441 37.9867V25.6122C347.441 22.7344 345.098 20.3911 342.22 20.3911Z" fill="white"/>
<path d="M314.552 48.3056C314.511 48.3056 314.47 48.3056 314.429 48.2645C314.347 48.2233 314.264 48.1411 314.264 48.0178V25.5711C314.264 22.57 316.731 20.1033 319.732 20.1033H342.22C345.221 20.1033 347.688 22.57 347.688 25.5711V37.9456C347.688 40.9467 345.221 43.4133 342.22 43.4133H319.938L314.717 48.1822C314.717 48.3056 314.634 48.3056 314.552 48.3056ZM319.773 20.6789C317.06 20.6789 314.84 22.8989 314.84 25.6122V47.4422L319.65 43.0022C319.691 42.9611 319.773 42.92 319.856 42.92H342.261C344.974 42.92 347.194 40.7 347.194 37.9867V25.6122C347.194 22.8989 344.974 20.6789 342.261 20.6789H319.773Z" fill="#1C3D28"/>
<path d="M325.858 32.19C325.858 33.4233 324.83 34.4511 323.597 34.4511C322.363 34.4511 321.336 33.4233 321.336 32.19C321.336 30.9567 322.363 29.9289 323.597 29.9289C324.83 29.9289 325.858 30.9567 325.858 32.19Z" fill="white"/>
<path d="M323.597 34.7389C322.199 34.7389 321.048 33.5878 321.048 32.19C321.048 30.7922 322.199 29.6411 323.597 29.6411C324.994 29.6411 326.146 30.7922 326.146 32.19C326.146 33.5878 324.994 34.7389 323.597 34.7389ZM323.597 30.2167C322.487 30.2167 321.623 31.1211 321.623 32.19C321.623 33.3 322.528 34.1633 323.597 34.1633C324.707 34.1633 325.57 33.2589 325.57 32.19C325.57 31.1211 324.707 30.2167 323.597 30.2167Z" fill="#1C3D28"/>
<path d="M333.71 32.19C333.71 33.4233 332.682 34.4511 331.449 34.4511C330.216 34.4511 329.188 33.4233 329.188 32.19C329.188 30.9567 330.216 29.9289 331.449 29.9289C332.682 29.9289 333.71 30.9567 333.71 32.19Z" fill="white"/>
<path d="M331.449 34.7389C330.051 34.7389 328.9 33.5878 328.9 32.19C328.9 30.7922 330.051 29.6411 331.449 29.6411C332.847 29.6411 333.998 30.7922 333.998 32.19C333.998 33.5878 332.847 34.7389 331.449 34.7389ZM331.449 30.2167C330.339 30.2167 329.476 31.1211 329.476 32.19C329.476 33.3 330.38 34.1633 331.449 34.1633C332.559 34.1633 333.422 33.2589 333.422 32.19C333.463 31.1211 332.559 30.2167 331.449 30.2167Z" fill="#1C3D28"/>
<path d="M341.562 32.19C341.562 33.4233 340.534 34.4511 339.301 34.4511C338.068 34.4511 337.04 33.4233 337.04 32.19C337.04 30.9567 338.068 29.9289 339.301 29.9289C340.576 29.9289 341.562 30.9567 341.562 32.19Z" fill="white"/>
<path d="M339.301 34.7389C337.903 34.7389 336.752 33.5878 336.752 32.19C336.752 30.7922 337.903 29.6411 339.301 29.6411C340.699 29.6411 341.85 30.7922 341.85 32.19C341.85 33.5878 340.699 34.7389 339.301 34.7389ZM339.301 30.2167C338.191 30.2167 337.328 31.1211 337.328 32.19C337.328 33.3 338.232 34.1633 339.301 34.1633C340.411 34.1633 341.274 33.2589 341.274 32.19C341.316 31.1211 340.411 30.2167 339.301 30.2167Z" fill="#1C3D28"/>
<path d="M242.608 189.111H0.422211V3.00112C0.422211 1.52112 1.65555 0.287781 3.13555 0.287781H239.894C241.374 0.287781 242.608 1.52112 242.608 3.00112V189.111Z" fill="white"/>
<path d="M242.609 189.399H0.42303C0.258586 189.399 0.135254 189.276 0.135254 189.111V8.51C0.135254 3.82334 3.95859 0 8.64525 0H234.386C239.073 0 242.896 3.82334 242.896 8.51V189.111C242.896 189.276 242.773 189.399 242.609 189.399ZM0.710807 188.823H242.362V8.51C242.362 4.11112 238.785 0.534452 234.386 0.534452H8.64525C4.24636 0.534452 0.6697 4.11112 0.6697 8.51V188.823H0.710807Z" fill="#141051"/>
<path d="M233.728 0.287781H9.30221C4.40999 0.287781 0.422211 4.27556 0.422211 9.16778V22.2H242.608V9.16778C242.608 4.23445 238.661 0.287781 233.728 0.287781Z" fill="#1C3D28"/>
<path d="M15.7978 13.8133C17.3417 13.8133 18.5933 12.5617 18.5933 11.0178C18.5933 9.47385 17.3417 8.22223 15.7978 8.22223C14.2538 8.22223 13.0022 9.47385 13.0022 11.0178C13.0022 12.5617 14.2538 13.8133 15.7978 13.8133Z" fill="#9664A9"/>
<path d="M28.2133 13.8133C29.7573 13.8133 31.0089 12.5617 31.0089 11.0178C31.0089 9.47385 29.7573 8.22223 28.2133 8.22223C26.6694 8.22223 25.4178 9.47385 25.4178 11.0178C25.4178 12.5617 26.6694 13.8133 28.2133 13.8133Z" fill="#B1A3B7"/>
<path d="M40.5878 13.8133C42.1317 13.8133 43.3833 12.5617 43.3833 11.0178C43.3833 9.47385 42.1317 8.22223 40.5878 8.22223C39.0438 8.22223 37.7922 9.47385 37.7922 11.0178C37.7922 12.5617 39.0438 13.8133 40.5878 13.8133Z" fill="#57BC7B"/>
<path d="M111.874 49.95H11.6456C10.6589 49.95 9.87778 49.1689 9.87778 48.1822C9.87778 47.1955 10.6589 46.4144 11.6456 46.4144H111.874C112.861 46.4144 113.642 47.1955 113.642 48.1822C113.642 49.1689 112.82 49.95 111.874 49.95Z" fill="#57BC7B"/>
<path d="M111.874 59.4055H11.6456C10.6589 59.4055 9.87778 58.6244 9.87778 57.6378C9.87778 56.6511 10.6589 55.87 11.6456 55.87H111.874C112.861 55.87 113.642 56.6511 113.642 57.6378C113.642 58.6244 112.82 59.4055 111.874 59.4055Z" fill="#57BC7B"/>
<path d="M111.874 68.9022H11.6456C10.6589 68.9022 9.87778 68.1211 9.87778 67.1344C9.87778 66.1477 10.6589 65.3666 11.6456 65.3666H111.874C112.861 65.3666 113.642 66.1477 113.642 67.1344C113.642 68.1211 112.82 68.9022 111.874 68.9022Z" fill="#57BC7B"/>
<path d="M110.764 119.304H12.7556C11.1522 119.304 9.87778 118.03 9.87778 116.427V77.7411C9.87778 76.1377 11.1522 74.8633 12.7556 74.8633H110.764C112.368 74.8633 113.642 76.1377 113.642 77.7411V116.427C113.642 117.989 112.327 119.304 110.764 119.304Z" fill="#98C8A9"/>
<path d="M230.316 113.631H132.307C130.703 113.631 129.429 114.906 129.429 116.509V189.234H233.193V116.509C233.193 114.947 231.878 113.631 230.316 113.631Z" fill="#98C8A9"/>
<path d="M231.384 100.804H131.197C130.21 100.804 129.429 101.586 129.429 102.572C129.429 103.559 130.21 104.34 131.197 104.34H231.426C232.412 104.34 233.193 103.559 233.193 102.572C233.193 101.627 232.371 100.804 231.384 100.804Z" fill="#57BC7B"/>
<path d="M231.384 91.3489H131.197C130.21 91.3489 129.429 92.13 129.429 93.1167C129.429 94.1033 130.21 94.8844 131.197 94.8844H231.426C232.412 94.8844 233.193 94.1033 233.193 93.1167C233.193 92.13 232.371 91.3489 231.384 91.3489Z" fill="#57BC7B"/>
<path d="M230.316 46.4144H132.307C130.703 46.4144 129.429 47.6889 129.429 49.2922V82.7566C129.429 84.3599 130.703 85.6344 132.307 85.6344H230.316C231.919 85.6344 233.193 84.3599 233.193 82.7566V49.2922C233.193 47.6889 231.878 46.4144 230.316 46.4144Z" fill="#98C8A9"/>
<path d="M113.642 189.111H66.4055V131.35C66.4055 129.747 67.68 128.472 69.2833 128.472H110.764C112.368 128.472 113.642 129.747 113.642 131.35V189.111Z" fill="#98C8A9"/>
<path d="M57.1555 189.111H9.87778V130.034C9.87778 129.171 10.5767 128.513 11.3989 128.513H29.8989H55.5933C56.4567 128.513 57.1144 129.212 57.1144 130.034V150.261V189.111H57.1555Z" fill="#98C8A9"/>
<path d="M242.608 189.399C242.443 189.399 242.32 189.276 242.32 189.111V8.51C242.32 4.11112 238.743 0.534452 234.344 0.534452H8.64444C4.24555 0.534452 0.668882 4.11112 0.668882 8.51V189.111C0.668882 189.276 0.545544 189.399 0.381099 189.399C0.216655 189.399 0.0933228 189.276 0.0933228 189.111V8.51C0.0933228 3.82334 3.91666 0 8.60332 0H234.344C239.031 0 242.854 3.82334 242.854 8.51V189.111C242.896 189.276 242.772 189.399 242.608 189.399Z" fill="#1C3D28"/>
<path d="M242.608 22.4878H0.422206C0.257762 22.4878 0.13443 22.3644 0.13443 22.2C0.13443 22.0356 0.257762 21.9122 0.422206 21.9122H242.608C242.772 21.9122 242.896 22.0356 242.896 22.2C242.896 22.3644 242.772 22.4878 242.608 22.4878Z" fill="#4D4D6F"/>
<path d="M164.538 66.3122C166.963 64.5855 168.731 67.3811 168.731 67.3811L169.348 67.2167C173.089 66.8056 173.788 71.9444 173.788 71.9444L181.27 75.6856L176.542 71.5333C176.542 71.5333 170.499 63.5578 173.418 61.9544C176.337 60.3511 180.489 68.3678 180.489 68.3678C180.489 68.3678 189.41 74.5756 192.082 74.0822C194.754 73.5889 194.467 67.2167 197.303 66.8056C198.002 66.6822 198.537 66.7645 198.948 66.97C199.976 67.4222 200.304 68.6556 199.811 69.6422C198.701 71.6978 197.673 76.3022 198.372 78.6867C199.194 81.4 198.701 82.6333 198.701 82.6333L200.962 90.1978C199.77 91.5956 198.454 92.9111 197.386 93.8978C195.33 95.8711 192.987 97.1867 190.808 97.8445L189.862 94.1445L179.42 90.4856C179.42 90.4856 174.857 86.8678 173.541 85.0589C172.226 83.25 173.089 80.4956 173.089 80.4956C173.089 80.4956 170.746 79.5911 169.841 78.6456C168.978 77.7 169.266 74.2467 169.266 74.2467C169.266 74.2467 162.112 68.0389 164.538 66.3122Z" fill="#FFAFA3"/>
<path d="M189.862 94.1033C194.631 92.6644 198.29 90.28 200.428 88.43L201.168 90.8144C199.976 92.2122 199.03 93.2811 197.714 94.1444C195.33 95.7066 192.987 97.1455 190.808 97.8033L189.862 94.1033Z" fill="#DF817F"/>
<path d="M173.048 80.4544C172.883 78.8511 172.719 77.2889 172.554 75.6856L172.308 73.3011C172.226 72.89 172.349 72.3967 172.678 72.1089C172.842 71.9445 173.048 71.8622 173.253 71.8211C173.459 71.78 173.664 71.78 173.911 71.8211C174.117 71.8622 174.322 71.9444 174.528 72.0267C174.733 72.1089 174.898 72.2733 175.021 72.3967C175.35 72.6845 175.597 72.9722 175.843 73.3011C176.296 73.9589 176.666 74.6989 176.953 75.4389C177.241 76.1789 177.447 76.96 177.57 77.7822C177.693 78.5633 177.734 79.3856 177.652 80.2078L177.57 82.0989L177.529 82.0578C178.31 82.7156 179.132 83.3733 179.913 84.0722C179.091 83.4556 178.269 82.7978 177.447 82.1811L177.406 82.14L177.447 80.2489C177.529 79.4678 177.447 78.6867 177.323 77.9056C177.2 77.1244 176.953 76.3844 176.666 75.6444C176.378 74.9044 176.008 74.2056 175.597 73.5478C175.391 73.2189 175.144 72.9311 174.857 72.6844C174.692 72.5611 174.569 72.4378 174.404 72.3556C174.24 72.2733 174.076 72.1911 173.87 72.15C173.706 72.1089 173.5 72.15 173.336 72.15C173.171 72.1911 173.007 72.2733 172.842 72.3556C172.719 72.4789 172.596 72.6433 172.554 72.8078C172.513 72.89 172.513 72.9722 172.513 73.0544C172.513 73.0956 172.513 73.0956 172.513 73.0956V73.1778V73.3422L172.678 75.7267C172.842 77.2478 172.966 78.8511 173.048 80.4544Z" fill="#DF817F"/>
<path d="M169.224 74.2055C169.019 73.0955 168.937 71.9855 168.854 70.8344C168.772 69.7244 168.731 68.5733 168.731 67.4633C168.937 68.5733 169.019 69.6833 169.101 70.8344C169.183 71.9855 169.266 73.0955 169.224 74.2055Z" fill="#DF817F"/>
<path d="M177.488 77.8644C177.817 77.9878 178.146 78.1111 178.433 78.2755C178.762 78.44 179.05 78.5633 179.338 78.7278C179.626 78.8922 179.913 79.0566 180.201 79.2622C180.489 79.4266 180.777 79.6322 181.064 79.8378C180.736 79.7144 180.407 79.5911 180.119 79.4266C179.79 79.2622 179.502 79.1389 179.214 78.9744C178.927 78.81 178.639 78.6455 178.351 78.44C178.022 78.2755 177.734 78.07 177.488 77.8644Z" fill="#DF817F"/>
<path d="M194.097 86.7855C193.644 86.4155 193.192 86.1277 192.74 85.8399C192.288 85.5522 191.794 85.2644 191.26 85.0588C190.273 84.6066 189.163 84.3188 188.094 84.4011C187.807 84.4422 187.56 84.4422 187.272 84.5244L186.861 84.6066L186.45 84.6477C185.874 84.6888 185.34 84.73 184.764 84.73C183.654 84.73 182.503 84.6066 181.434 84.2777C181.969 84.3599 182.544 84.4422 183.079 84.4833C183.613 84.5244 184.189 84.5244 184.723 84.5244C185.258 84.5244 185.833 84.4833 186.368 84.4011L186.779 84.36L187.19 84.2777C187.437 84.2366 187.766 84.1955 188.012 84.1544C189.163 84.1133 190.273 84.4011 191.301 84.8944C192.37 85.3466 193.316 86.0044 194.097 86.7855Z" fill="#DF817F"/>
<path d="M196.193 89.0055C196.152 89.7455 195.988 90.4855 195.659 91.1433C195.494 91.4722 195.289 91.801 195.042 92.0888C194.796 92.3766 194.508 92.6233 194.179 92.8288C193.562 93.2399 192.904 93.6099 192.247 93.8977C191.918 94.0211 191.548 94.1444 191.178 94.2266C191.013 94.2677 190.808 94.3088 190.643 94.3088C190.479 94.3088 190.273 94.3088 190.109 94.2266C190.479 94.3088 190.849 94.1855 191.178 94.1033C191.507 93.9799 191.836 93.8566 192.164 93.6922C192.822 93.3633 193.439 92.9933 194.056 92.5822C194.672 92.2122 195.166 91.6777 195.494 91.061C195.823 90.4444 196.029 89.7044 196.193 89.0055Z" fill="#DF817F"/>
<path d="M198.66 82.5922C198.701 82.88 198.701 83.1678 198.619 83.4144C198.537 83.7022 198.454 83.9489 198.331 84.1955C198.208 84.4422 198.043 84.6478 197.838 84.8533C197.756 84.9767 197.632 85.0589 197.55 85.1411C197.427 85.2233 197.344 85.3055 197.221 85.3878C197.303 85.2644 197.386 85.1822 197.468 85.0589C197.55 84.9356 197.632 84.8533 197.714 84.73C197.756 84.6889 197.797 84.6067 197.838 84.5656C197.879 84.5244 197.92 84.4422 197.961 84.4011C198.043 84.2778 198.084 84.1955 198.167 84.0722C198.29 83.8255 198.413 83.62 198.496 83.3733C198.496 83.1267 198.619 82.88 198.66 82.5922Z" fill="#DF817F"/>
<path d="M181.27 75.6444C181.476 75.6855 181.64 75.7266 181.846 75.7677C182.01 75.8088 182.216 75.8911 182.38 75.9733C182.544 76.0555 182.709 76.1378 182.873 76.22C183.038 76.3022 183.202 76.4255 183.367 76.5489C183.161 76.5077 182.997 76.4666 182.791 76.4255C182.627 76.3844 182.421 76.3022 182.257 76.22C182.092 76.1378 181.928 76.0555 181.763 75.9733C181.599 75.8911 181.434 75.7677 181.27 75.6444Z" fill="#DF817F"/>
<path d="M193.274 73.4655C193.069 73.7533 192.822 74 192.534 74.2055C192.247 74.4111 191.959 74.6166 191.671 74.7811C191.342 74.9455 191.054 75.0689 190.684 75.1922C190.356 75.3155 189.986 75.3566 189.657 75.3566C189.986 75.2333 190.314 75.11 190.602 74.9866C190.931 74.8633 191.219 74.6988 191.507 74.5344C191.794 74.3699 192.082 74.2055 192.37 74.0411C192.699 73.8766 192.987 73.6711 193.274 73.4655Z" fill="#DF817F"/>
<path d="M185.093 75.7266C184.682 75.85 184.394 76.0966 184.066 76.3844C183.901 76.5077 183.778 76.6722 183.613 76.7955C183.49 76.9599 183.326 77.0833 183.202 77.2477C182.668 77.8644 182.174 78.5222 181.722 79.18C181.476 79.5089 181.27 79.8377 181.023 80.2077C180.818 80.5366 180.571 80.9066 180.366 81.2355C179.913 81.9344 179.502 82.6333 179.05 83.3322C179.214 82.9622 179.42 82.5922 179.584 82.2222C179.749 81.8522 179.954 81.4822 180.16 81.1533C180.571 80.4544 181.023 79.7555 181.476 79.0566C181.969 78.3988 182.462 77.7411 183.038 77.1244C183.161 76.96 183.326 76.8366 183.49 76.6722C183.654 76.5488 183.819 76.3844 183.983 76.2611C184.066 76.22 184.148 76.1377 184.23 76.0966C184.312 76.0555 184.394 75.9733 184.477 75.9322C184.682 75.85 184.888 75.7266 185.093 75.7266Z" fill="#DF817F"/>
<path d="M180.366 68.45C180.242 68.6144 180.119 68.7788 179.954 68.9433C179.831 69.1077 179.667 69.2311 179.502 69.3544C179.338 69.4777 179.173 69.6011 179.009 69.7244C178.844 69.8477 178.68 69.9711 178.474 70.0533C178.598 69.8889 178.721 69.7244 178.886 69.56C179.009 69.3955 179.173 69.2722 179.338 69.1488C179.502 69.0255 179.667 68.9022 179.831 68.7788C179.996 68.6555 180.16 68.5322 180.366 68.45Z" fill="#DF817F"/>
<path d="M185.833 83.7844C186.121 83.6199 186.45 83.4555 186.738 83.2911C187.067 83.1266 187.354 83.0033 187.683 82.88C188.012 82.7566 188.341 82.6333 188.67 82.5099C188.999 82.3866 189.328 82.3044 189.657 82.2222C189.369 82.3866 189.04 82.5511 188.752 82.7155C188.423 82.8799 188.136 83.0033 187.807 83.1266C187.478 83.2499 187.149 83.3733 186.82 83.4966C186.491 83.62 186.162 83.7022 185.833 83.7844Z" fill="#DF817F"/>
<path d="M330.174 178.34C341.932 176.12 353.032 171.063 353.361 159.881C353.854 144.917 349.456 133.159 337.41 112.644C326.68 94.3089 312.743 84.8122 305.22 82.3045C302.589 81.4411 301.89 81.03 299.547 79.3856L296.833 76.6311C296.422 76.1789 295.888 75.8911 295.271 75.6856C292.681 74.8634 285.158 73.2189 277.676 77.7411C277.676 77.7411 273.77 78.3989 271.098 80.7833C266.041 81.8933 257.901 84.1956 249.638 91.8422C242.238 98.7078 223.902 119.551 223.902 119.551L206.019 86.6211L186.45 98.42C186.45 98.42 195.001 151.782 211.363 164.486C222.998 173.53 235.578 163.828 235.578 163.828L232.618 189.276H330.133L330.174 178.34Z" fill="#3F8A59"/>
<path d="M275.826 80.9889L275.949 80.3311C276.113 79.2622 276.771 78.3167 277.676 77.7411C285.158 73.2189 292.722 74.9456 295.353 75.7678C295.929 75.9322 296.463 76.2611 296.916 76.7134L299.629 79.4678C299.629 79.4678 300.616 91.7189 286.186 113.343C286.186 113.302 275.291 102.696 275.826 80.9889Z" fill="white"/>
<path d="M236.441 158.812C236.482 158.401 240.593 126.704 243.183 116.262C243.512 114.947 244.417 110.671 244.417 110.671C244.417 110.671 243.019 115.358 242.813 116.139C240.717 123.991 236.277 156.839 236.03 158.607L235.578 163.869L236.441 158.812Z" fill="#2F3D34"/>
<path d="M225.423 139.326C228.054 135.626 228.877 130.898 227.52 126.581C226.246 122.511 224.067 119.469 224.026 119.387C223.943 119.304 223.82 119.263 223.738 119.346C223.656 119.428 223.614 119.551 223.697 119.633C223.738 119.674 226.163 123.128 227.356 127.527C228.383 131.227 227.808 135.173 225.917 138.503L225.423 139.326Z" fill="#2F3D34"/>
<path d="M294.408 91.5545L286.597 85.8812C286.514 85.8401 286.432 85.8401 286.35 85.8812L279.608 91.2667C279.526 91.3489 279.484 91.4723 279.567 91.5545C279.649 91.6367 279.772 91.6778 279.854 91.5956L282.568 89.4167L284.664 92.5412L283.308 109.684L283.513 109.972C284.294 111.164 285.199 112.274 286.186 113.302C286.186 113.302 288.981 109.068 289.351 108.369L287.994 92.7878L290.79 89.4167L294.202 91.8834C294.243 91.9245 294.284 91.9245 294.326 91.9245C294.408 91.9245 294.449 91.8834 294.49 91.8423C294.531 91.7601 294.49 91.6367 294.408 91.5545Z" fill="#98C8A9"/>
<path d="M330.216 178.34C330.092 178.34 330.01 178.258 330.01 178.134L325.488 116.221C325.488 116.098 325.159 109.109 325.159 109.109C325.159 109.109 325.899 116.057 325.899 116.18L330.421 178.093C330.421 178.217 330.339 178.299 330.216 178.34Z" fill="#2F3D34"/>
<path d="M188.259 108.04L210.582 95.0078L210.377 94.6378L188.177 107.629L188.259 108.04Z" fill="#2F3D34"/>
<path d="M296.628 178.504H333.957C335.807 178.504 337.369 177.148 337.616 175.298L344.317 126.17C344.604 123.95 342.878 121.977 340.658 121.977H303.329C301.479 121.977 299.917 123.333 299.67 125.183L292.969 174.311C292.64 176.531 294.367 178.504 296.628 178.504Z" fill="white"/>
<path d="M346.249 159.717L343.124 168.268C342.343 170.364 340.247 171.68 338.027 171.474L330.668 170.734C329.599 170.611 328.859 169.707 328.941 168.638C329.064 167.569 329.969 166.829 331.038 166.911L333.669 167.158L327.502 166.418C326.392 166.212 325.529 165.349 325.364 164.239C325.118 162.636 326.351 161.197 327.954 161.197H331.243L326.022 161.032C324.419 160.991 323.144 159.676 323.144 158.072C323.144 156.592 324.254 155.318 325.776 155.153L338.602 153.591L338.191 151.166L330.257 148.946C328.9 148.576 328.201 147.096 328.736 145.78C329.147 144.793 330.216 144.218 331.284 144.423L341.028 146.191C342.837 146.52 344.358 147.836 344.933 149.603L346.29 153.714C346.989 155.647 346.989 157.784 346.249 159.717Z" fill="#FFAFA3"/>
<path d="M330.997 161.197C332.764 161.115 334.573 161.115 336.341 161.115C338.109 161.156 339.918 161.197 341.686 161.32C339.918 161.402 338.109 161.402 336.341 161.402C334.573 161.361 332.764 161.32 330.997 161.197Z" fill="#DF817F"/>
<path d="M333.176 167.117C333.71 167.117 334.203 167.117 334.738 167.158C335.272 167.199 335.766 167.24 336.3 167.281C336.793 167.322 337.328 167.404 337.821 167.446C338.314 167.528 338.849 167.61 339.342 167.692C338.808 167.692 338.314 167.692 337.78 167.651C337.246 167.61 336.752 167.569 336.218 167.528C335.724 167.487 335.19 167.404 334.697 167.363C334.203 167.322 333.71 167.24 333.176 167.117Z" fill="#DF817F"/>
<path d="M338.643 153.591C338.89 153.509 339.096 153.468 339.342 153.427C339.589 153.386 339.794 153.386 340.041 153.344C340.288 153.344 340.534 153.303 340.74 153.344C340.987 153.344 341.233 153.344 341.439 153.386C341.192 153.468 340.987 153.509 340.74 153.55C340.493 153.591 340.288 153.591 340.041 153.632C339.794 153.632 339.548 153.673 339.342 153.632C339.137 153.632 338.89 153.632 338.643 153.591Z" fill="#DF817F"/>
<path d="M297.327 64.4211L296.916 79.5089C296.874 80.8244 296.258 82.0166 295.189 82.7566C293.544 83.9077 290.749 85.3877 287.049 85.4289C280.882 85.5111 281.006 80.5778 281.006 80.5778L281.458 63.8044L297.327 64.4211Z" fill="#FFAFA3"/>
<path d="M296.134 63.8456L296.093 65.86C295.682 66.97 292.188 73.7945 281.129 76.7956L281.499 63.8456H296.134Z" fill="#DF817F"/>
<path d="M298.437 55.9522C298.437 55.9522 306.947 45.4689 298.231 43.2489C293.01 41.9334 291.653 40.1245 285.404 37.1645C278.169 33.7523 266.987 41.1111 277.264 50.5667L295.024 48.5523L298.437 55.9522Z" fill="#1C3D28"/>
<path d="M282.444 57.3499C282.28 59.6933 280.266 61.4611 277.922 61.2966C275.579 61.1322 273.811 59.1177 273.976 56.7744C274.14 54.4311 276.154 52.6633 278.498 52.8277C280.841 52.9922 282.609 55.0066 282.444 57.3499Z" fill="#DF817F"/>
<path d="M289.351 70.4233L283.431 70.0122C278.991 69.7244 275.702 65.8189 276.154 61.3789L277.223 50.5255C277.799 44.9755 282.609 40.9055 288.2 41.2755C293.873 41.6455 299.177 46.6611 298.807 52.3344L297.45 63.6811C296.957 67.7511 293.421 70.7111 289.351 70.4233Z" fill="#FFAFA3"/>
<path d="M282.403 60.5155H282.362L281.006 60.0633C280.923 60.0222 280.882 59.9811 280.923 59.8989L281.951 55.7467C281.951 55.6644 282.033 55.6233 282.116 55.6644C282.198 55.6644 282.239 55.7466 282.198 55.8289L281.211 59.8578L282.444 60.2689C282.527 60.31 282.568 60.3511 282.527 60.4333C282.527 60.4744 282.486 60.5155 282.403 60.5155Z" fill="#020202"/>
<path d="M280.06 56.5278C280.019 57.0211 279.608 57.3911 279.114 57.35C278.621 57.3089 278.251 56.8978 278.292 56.4044C278.333 55.9111 278.744 55.5411 279.238 55.5822C279.731 55.6233 280.101 56.0344 280.06 56.5278Z" fill="#020202"/>
<path d="M287.213 57.0212C287.172 57.5145 286.761 57.8845 286.268 57.8434C285.774 57.8023 285.404 57.3912 285.446 56.8978C285.487 56.4045 285.898 56.0345 286.391 56.0756C286.884 56.1167 287.254 56.5278 287.213 57.0212Z" fill="#020202"/>
<path d="M287.583 51.9645C287.583 51.9645 285.322 51.4712 285.199 52.6634C285.199 52.6634 285.117 53.4856 287.09 53.8556C289.063 54.2256 289.598 54.1022 289.844 53.3622C290.091 52.6223 288.652 52.0878 287.583 51.9645Z" fill="#020202"/>
<path d="M279.361 51.3478C279.361 51.3478 281.252 51.3067 281.293 52.4578C281.293 52.4578 281.293 53.2389 279.649 53.2389C278.004 53.2389 277.47 52.91 277.388 52.2523C277.306 51.5123 278.498 51.2656 279.361 51.3478Z" fill="#020202"/>
<path d="M293.339 52.7455C293.339 52.7455 293.257 61.5433 290.173 62.9822C287.131 64.4211 284.459 59.7344 276.154 61.42C276.154 61.42 273.482 70.1767 284.171 71.9444C300.616 74.6578 295.271 55.6233 295.271 55.6233L293.339 52.7455Z" fill="#1C3D28"/>
<path d="M296.011 57.5144C296.011 57.5144 289.886 53.3211 292.64 48.0589C292.64 48.0589 283.554 42.0567 278.498 46.5789L279.279 39.5489L294.326 42.0156L300.163 49.9089L298.313 56.4867L296.011 57.5144Z" fill="#1C3D28"/>
<path d="M286.679 61.8312C286.556 61.8312 286.432 61.8312 286.309 61.7901C284.212 61.5434 282.732 59.3645 283.02 56.8978C283.143 55.7056 283.678 54.6367 284.5 53.8967C285.322 53.1567 286.35 52.7867 287.337 52.91C289.433 53.1567 290.913 55.3356 290.626 57.8023C290.379 60.1045 288.652 61.8312 286.679 61.8312ZM286.967 53.1978C286.144 53.1978 285.363 53.5267 284.706 54.1434C283.924 54.8423 283.431 55.87 283.308 56.9801C283.02 59.2823 284.418 61.3378 286.35 61.5434C288.282 61.7901 290.091 60.1045 290.379 57.8023C290.667 55.5 289.269 53.4445 287.337 53.2389C287.213 53.1978 287.09 53.1978 286.967 53.1978Z" fill="white"/>
<path d="M277.634 60.4744C277.552 60.4744 277.511 60.4744 277.429 60.4744C275.908 60.31 274.88 58.1722 275.168 55.7056C275.456 53.28 276.936 51.43 278.457 51.5945C279.197 51.6767 279.854 52.2522 280.266 53.1567C280.677 54.0611 280.841 55.1711 280.677 56.3633C280.471 58.7067 279.114 60.4744 277.634 60.4744ZM275.456 55.7467C275.168 58.0489 276.072 60.0222 277.47 60.1867C278.827 60.3511 280.183 58.6244 280.471 56.3222C280.594 55.2122 280.471 54.1022 280.06 53.28C279.69 52.4578 279.114 51.9645 278.457 51.8822C277.059 51.7178 275.743 53.4445 275.456 55.7467Z" fill="white"/>
<path d="M283.143 57.1034L280.553 56.4867C280.471 56.4867 280.43 56.4045 280.471 56.3222C280.471 56.24 280.553 56.1989 280.636 56.24L283.184 56.8567C283.267 56.8567 283.308 56.9389 283.267 57.0212C283.267 57.0623 283.226 57.1034 283.143 57.1034Z" fill="white"/>
<path d="M300.944 59.3233L290.461 57.9667C290.379 57.9667 290.338 57.8845 290.338 57.8022C290.338 57.72 290.42 57.6789 290.502 57.6789L300.944 59.0356C301.027 59.0356 301.068 59.1178 301.068 59.2C301.068 59.2822 301.027 59.3233 300.944 59.3233Z" fill="white"/>
<path d="M302.63 60.5978C302.466 62.9411 300.451 64.7089 298.108 64.5445C295.764 64.38 293.997 62.3656 294.161 60.0222C294.326 57.6789 296.34 55.9111 298.683 56.0755C301.027 56.2811 302.794 58.2956 302.63 60.5978Z" fill="#FFAFA3"/>
<path d="M296.874 61.6255C296.792 61.6255 296.751 61.5433 296.751 61.4611C296.751 61.42 296.874 59.9811 297.861 59.2822C298.437 58.8711 299.136 58.7478 300.04 58.9534C300.122 58.9534 300.163 59.0356 300.122 59.1178C300.081 59.2 300.04 59.2411 299.958 59.2C299.177 58.9945 298.519 59.1178 298.026 59.4878C297.121 60.1456 297.039 61.4611 297.039 61.4611C296.998 61.5844 296.916 61.6255 296.874 61.6255Z" fill="#020202"/>
<path d="M304.521 82.0578C304.891 82.6334 308.139 87.9778 307.152 90.3622C305.878 93.4045 299.464 92.87 299.423 92.8289C299.3 92.8289 299.218 92.87 299.218 92.9523C299.177 93.0345 299.218 93.1578 299.3 93.1989C299.341 93.24 303.617 95.9945 303 99.16C301.89 104.916 286.227 113.138 286.062 113.22C285.98 113.261 285.939 113.384 285.98 113.508C286.021 113.59 286.103 113.631 286.186 113.631C286.227 113.631 286.268 113.631 286.268 113.59C286.926 113.261 302.26 105.203 303.411 99.2423C303.946 96.5289 301.356 94.1856 300.122 93.24C301.931 93.2811 306.412 93.1578 307.563 90.4445C308.591 88.0189 305.837 83.2911 305.179 82.1811L304.521 82.0578Z" fill="#2F3D34"/>
<path d="M288.036 189.522C287.912 189.522 287.83 189.44 287.83 189.317L289.104 119.222C289.022 116.673 287.583 114.33 285.281 113.179C279.813 110.383 270.44 105.203 268.878 101.709C267.069 97.68 270.234 94.2267 271.468 93.0755C269.988 93.0755 266.206 92.9111 265.836 90.8144C265.424 88.43 267.233 83.9078 270.687 80.8244C270.769 80.7422 271.303 80.3311 271.427 80.2489C271.714 80.0433 272.578 79.6322 272.578 79.6322C272.578 79.6322 271.262 80.8655 271.18 80.9478C267.727 83.9489 265.836 88.43 266.247 90.7322C266.658 92.9522 272.002 92.6233 272.043 92.6233C272.126 92.6233 272.208 92.6644 272.249 92.7467C272.29 92.8289 272.249 92.9111 272.167 92.9933C272.126 93.0344 267.192 96.8989 269.248 101.503C270.728 104.833 280.019 109.972 285.446 112.768C287.871 114.001 289.433 116.468 289.474 119.181L288.2 189.276C288.241 189.44 288.159 189.522 288.036 189.522Z" fill="#2F3D34"/>
<path d="M278.744 63.3112C278.744 63.3112 281.828 64.339 284.5 64.5856C284.5 64.5856 283.102 67.0112 280.471 66.0245C278.827 65.4078 278.744 63.3112 278.744 63.3112Z" fill="white"/>
<path d="M325.077 121.977V121.812C325.118 121.319 325.241 120.867 325.364 120.373C325.447 120.168 325.447 119.921 325.447 119.674C325.406 118.852 324.789 118.153 323.967 117.948C322.857 117.701 321.829 118.482 321.706 119.592C321.706 119.798 321.706 119.962 321.747 120.127C321.829 120.579 321.911 121.072 321.87 121.524L321.829 121.894H316.484L316.32 124.937L330.339 124.854L330.544 121.853L325.077 121.977ZM323.679 119.099C324.09 119.14 324.378 119.51 324.337 119.921C324.296 120.332 323.926 120.62 323.514 120.579C323.103 120.538 322.816 120.168 322.857 119.757C322.939 119.346 323.268 119.058 323.679 119.099Z" fill="#98C8A9"/>
</svg>
