<svg xmlns="http://www.w3.org/2000/svg" xmlns:xlink="http://www.w3.org/1999/xlink" width="1920" zoomAndPan="magnify" viewBox="0 0 1440 809.999993" height="1080" preserveAspectRatio="xMidYMid meet" version="1.0"><defs><clipPath id="id1"><path d="M 967 411 L 1102.992188 411 L 1102.992188 641.363281 L 967 641.363281 Z M 967 411 " clip-rule="nonzero"/></clipPath><clipPath id="id2"><path d="M 963 404 L 1102.992188 404 L 1102.992188 490 L 963 490 Z M 963 404 " clip-rule="nonzero"/></clipPath></defs><path fill="rgb(85.099792%, 85.099792%, 85.099792%)" d="M 712.21875 129.445312 C 652.636719 156.503906 582.695312 145.929688 518.71875 144.472656 C 454.699219 143.011719 364.066406 148.105469 345.933594 226.34375 C 339 256.257812 346.957031 289.820312 366.613281 313.613281 C 387.324219 338.6875 420.761719 354.902344 429.324219 386.496094 C 436.105469 411.488281 424.257812 437.441406 409.128906 457.523438 C 384.847656 489.746094 351.828125 513.800781 326.65625 545.269531 C 301.480469 576.738281 284.492188 620.847656 299.949219 659.414062 C 315.507812 698.214844 357.449219 717.5 396.148438 729.710938 C 478.039062 755.546875 570.324219 766.144531 644.261719 724.554688 C 688.042969 699.933594 722.730469 658.40625 770.394531 642.867188 C 832.027344 622.773438 899.6875 650.75 964.429688 645.554688 C 1041.5625 639.355469 1111.214844 581.238281 1133.195312 504.730469 C 1155.183594 428.21875 1128.167969 337.960938 1067.738281 286.035156 C 1039.460938 261.726562 1005.230469 245.636719 977.878906 220.210938 C 956.378906 200.230469 939.648438 174.75 929.679688 146.800781 C 919.121094 117.207031 914.292969 82.261719 889.796875 63.34375 C 864.714844 43.964844 828.953125 50.464844 802.429688 66.222656 C 775.90625 81.984375 754.425781 105.570312 727.878906 121.289062 C 722.746094 124.328125 717.527344 127.035156 712.21875 129.445312 " fill-opacity="1" fill-rule="nonzero"/><path fill="rgb(19.60907%, 21.958923%, 24.308777%)" d="M 702.585938 483.109375 C 700.089844 494.015625 695.996094 500.390625 698.746094 510.113281 C 701.492188 519.839844 726.105469 539.019531 723.9375 546.152344 C 721.773438 553.273438 694.140625 538.472656 685.476562 540.121094 C 676.820312 541.765625 655.097656 529.152344 654.347656 518.738281 C 653.589844 508.324219 670.429688 479.269531 670.429688 479.269531 L 702.585938 483.109375 " fill-opacity="1" fill-rule="nonzero"/><path fill="rgb(70.588684%, 69.799805%, 87.838745%)" d="M 554.695312 145.054688 L 554.078125 364.171875 C 545.214844 359.007812 530.882812 359.019531 522.070312 364.179688 L 522.6875 145.070312 C 531.492188 139.90625 545.828125 139.898438 554.695312 145.054688 " fill-opacity="1" fill-rule="nonzero"/><path fill="rgb(70.588684%, 69.799805%, 87.838745%)" d="M 660.484375 206.683594 L 659.867188 425.800781 L 554.078125 364.171875 L 554.695312 145.054688 L 660.484375 206.683594 " fill-opacity="1" fill-rule="nonzero"/><path fill="rgb(53.729248%, 52.549744%, 73.728943%)" d="M 522.6875 145.070312 L 522.070312 364.179688 L 408.851562 430.570312 L 409.46875 211.457031 L 522.6875 145.070312 " fill-opacity="1" fill-rule="nonzero"/><path fill="rgb(87.059021%, 86.669922%, 94.898987%)" d="M 412.804688 445.777344 L 413.113281 335.867188 C 413.105469 339.238281 415.335938 342.617188 419.792969 345.195312 L 419.484375 455.113281 C 415.019531 452.535156 412.789062 449.15625 412.804688 445.777344 " fill-opacity="1" fill-rule="nonzero"/><path fill="rgb(70.588684%, 69.799805%, 87.838745%)" d="M 515.0625 400.191406 L 514.753906 510.113281 L 419.484375 455.113281 L 419.792969 345.195312 L 515.0625 400.191406 " fill-opacity="1" fill-rule="nonzero"/><path fill="rgb(53.729248%, 52.549744%, 73.728943%)" d="M 660.183594 315.867188 L 659.875 425.785156 L 514.753906 510.113281 L 515.0625 400.191406 L 660.183594 315.867188 " fill-opacity="1" fill-rule="nonzero"/><path fill="rgb(87.059021%, 86.669922%, 94.898987%)" d="M 660.183594 315.867188 L 515.0625 400.191406 L 419.792969 345.195312 C 410.933594 340.078125 410.882812 331.78125 419.6875 326.664062 L 532.90625 260.875 C 541.714844 255.761719 556.054688 255.746094 564.914062 260.863281 L 660.183594 315.867188 " fill-opacity="1" fill-rule="nonzero"/><path fill="rgb(53.729248%, 52.549744%, 73.728943%)" d="M 698.746094 197.671875 L 698.128906 416.78125 C 698.121094 419.527344 696.675781 422.253906 693.640625 424.550781 C 685.164062 430.921875 669.359375 431.328125 659.867188 425.800781 L 660.484375 206.683594 C 669.976562 212.214844 685.777344 211.8125 694.257812 205.4375 C 697.292969 203.144531 698.730469 200.410156 698.746094 197.671875 " fill-opacity="1" fill-rule="nonzero"/><path fill="rgb(53.729248%, 52.549744%, 73.728943%)" d="M 402.277344 439.851562 L 402.894531 220.734375 C 402.902344 217.378906 405.097656 214.019531 409.46875 211.457031 L 408.851562 430.570312 C 404.480469 433.136719 402.292969 436.492188 402.277344 439.851562 " fill-opacity="1" fill-rule="nonzero"/><path fill="rgb(87.059021%, 86.669922%, 94.898987%)" d="M 694.238281 205.414062 C 685.800781 211.8125 669.976562 212.199219 660.464844 206.699219 L 554.710938 145.035156 C 545.835938 139.878906 531.511719 139.917969 522.679688 145.078125 L 410.484375 210.875 L 376.074219 193.691406 L 522.472656 107.851562 C 531.253906 102.695312 545.585938 102.652344 554.449219 107.851562 L 691.679688 187.761719 C 699.78125 192.5 701.273438 200.132812 694.238281 205.414062 " fill-opacity="1" fill-rule="nonzero"/><path fill="rgb(16.468811%, 17.649841%, 52.549744%)" d="M 607.277344 282.222656 C 617.152344 282.09375 714.617188 303.421875 722.019531 317.128906 C 729.417969 330.84375 713.382812 471.351562 708.449219 485.316406 C 703.515625 499.285156 675.792969 501.042969 667.046875 490.769531 C 659.671875 482.113281 661.503906 413.730469 664.363281 381.503906 C 665.035156 373.953125 659.496094 367.320312 651.972656 366.519531 C 623.839844 363.535156 566.28125 354.480469 567.210938 330.441406 C 568.445312 298.664062 607.277344 282.222656 607.277344 282.222656 " fill-opacity="1" fill-rule="nonzero"/><path fill="rgb(26.669312%, 29.798889%, 65.879822%)" d="M 572.777344 297.644531 C 584.160156 305.753906 660.28125 375.175781 664.65625 395.492188 C 669.035156 415.800781 667.285156 548.828125 660.28125 559.335938 C 653.28125 569.832031 623.636719 565.460938 615.269531 559.335938 C 607.9375 553.972656 597.0625 463.902344 608.777344 425.757812 C 611.183594 417.9375 607.167969 409.574219 599.765625 406.070312 C 571.949219 392.898438 489.160156 363.007812 495.074219 334.992188 C 502.953125 297.644531 572.777344 297.644531 572.777344 297.644531 " fill-opacity="1" fill-rule="nonzero"/><path fill="rgb(33.329773%, 42.749023%, 49.409485%)" d="M 619.9375 284.042969 C 618.941406 292.0625 589.308594 290.695312 580.90625 300.714844 C 553.847656 333 516.277344 365.664062 495.515625 350.570312 C 467.800781 330.484375 469.503906 270.105469 455.648438 237.484375 C 441.785156 204.820312 443.277344 161.328125 452.828125 134.886719 C 458.332031 119.707031 475.304688 110.023438 494.367188 101.671875 C 505.246094 96.933594 516.753906 92.628906 527.285156 87.984375 C 539.226562 82.691406 549.59375 78.683594 558.800781 76.386719 C 571.9375 73.015625 582.59375 73.140625 591.769531 78.046875 C 607.375 86.398438 591.769531 175.910156 592.617188 190.875 C 593.515625 205.800781 623.953125 251.933594 619.9375 284.042969 " fill-opacity="1" fill-rule="nonzero"/><path fill="rgb(22.749329%, 28.239441%, 31.759644%)" d="M 546.179688 220.726562 C 546.179688 220.726562 567.582031 98.285156 558.800781 76.386719 C 558.800781 76.386719 586.359375 164.441406 546.179688 220.726562 " fill-opacity="1" fill-rule="nonzero"/><path fill="rgb(87.059021%, 86.669922%, 94.898987%)" d="M 546.179688 220.726562 C 530.78125 215.140625 502.21875 126.871094 494.367188 101.671875 C 496.027344 100.941406 497.738281 100.21875 499.441406 99.5 C 508.785156 95.617188 518.378906 91.902344 527.285156 87.984375 C 534.960938 84.570312 541.960938 81.710938 548.445312 79.496094 C 552.066406 78.257812 555.515625 77.191406 558.800781 76.386719 C 569.25 122.097656 546.179688 220.726562 546.179688 220.726562 " fill-opacity="1" fill-rule="nonzero"/><path fill="rgb(70.588684%, 69.799805%, 87.838745%)" d="M 499.441406 99.5 C 499.441406 99.5 520.234375 165.121094 543.488281 141.503906 L 499.441406 99.5 " fill-opacity="1" fill-rule="nonzero"/><path fill="rgb(37.649536%, 25.489807%, 21.179199%)" d="M 543.488281 141.503906 C 532.789062 141.839844 505.582031 111.304688 499.441406 99.5 C 508.785156 95.617188 518.378906 91.902344 527.285156 87.984375 C 534.960938 84.570312 541.960938 81.710938 548.445312 79.496094 C 563.027344 100.480469 543.488281 141.503906 543.488281 141.503906 " fill-opacity="1" fill-rule="nonzero"/><path fill="rgb(70.588684%, 69.799805%, 87.838745%)" d="M 543.488281 141.503906 C 543.488281 141.503906 555.914062 99.980469 550.027344 85.921875 C 550.027344 85.921875 573.910156 114.984375 543.488281 141.503906 " fill-opacity="1" fill-rule="nonzero"/><path fill="rgb(37.649536%, 25.489807%, 21.179199%)" d="M 504.875 77.148438 L 501.59375 100.472656 L 513.886719 105.9375 L 524.355469 84.359375 L 504.875 77.148438 " fill-opacity="1" fill-rule="nonzero"/><path fill="rgb(52.549744%, 41.178894%, 34.899902%)" d="M 570.820312 36.328125 C 570.289062 51.453125 565.160156 104.886719 548.277344 109.933594 C 531.394531 114.992188 486.378906 85.195312 490.925781 56.257812 C 495.476562 27.324219 508.679688 4 528.398438 5.171875 C 548.121094 6.34375 571.242188 24.28125 570.820312 36.328125 " fill-opacity="1" fill-rule="nonzero"/><path fill="rgb(27.059937%, 18.429565%, 17.248535%)" d="M 570.820312 18.585938 C 575.390625 27.5 572.382812 46.335938 557.199219 44.816406 C 542.011719 43.300781 526.824219 29.636719 521.511719 37.988281 C 516.191406 46.335938 526.824219 62.789062 517.710938 71.648438 C 508.601562 80.507812 490.898438 81.019531 486.867188 65.832031 C 482.847656 50.652344 493.132812 10.246094 513.015625 5.128906 C 532.898438 0.0195312 562.433594 2.222656 570.820312 18.585938 " fill-opacity="1" fill-rule="nonzero"/><path fill="rgb(22.749329%, 28.239441%, 31.759644%)" d="M 494.367188 101.671875 C 494.367188 101.671875 507.753906 210.902344 546.179688 220.726562 L 494.367188 101.671875 " fill-opacity="1" fill-rule="nonzero"/><path fill="rgb(22.749329%, 28.239441%, 31.759644%)" d="M 597.746094 91.542969 C 601.839844 100.976562 621.679688 179.675781 625.789062 191.308594 C 629.894531 202.941406 673.402344 254.945312 670.269531 266.582031 C 667.144531 278.207031 645.054688 281.375 636.054688 273.839844 C 627.054688 266.3125 595 209.78125 587.472656 194.726562 C 579.9375 179.675781 597.746094 91.542969 597.746094 91.542969 " fill-opacity="1" fill-rule="nonzero"/><path fill="rgb(52.549744%, 41.178894%, 34.899902%)" d="M 688.015625 291.214844 C 687.460938 293.511719 684.308594 296.546875 679.996094 299.144531 C 671.769531 304.136719 659.398438 307.632812 653.34375 301.359375 C 644.09375 291.851562 638.082031 275.949219 643.792969 271.171875 C 649.511719 266.398438 665.113281 264.132812 665.113281 264.132812 C 667.074219 265.375 679.996094 266.308594 684.175781 268.957031 L 673.941406 271.984375 L 673.859375 271.984375 C 672.835938 271.984375 672.113281 272.152344 672.113281 272.535156 C 672.0625 272.621094 672.0625 272.664062 672.113281 272.746094 C 672.75 274.96875 689.589844 284.519531 688.015625 291.214844 " fill-opacity="1" fill-rule="nonzero"/><path fill="rgb(52.549744%, 41.178894%, 34.899902%)" d="M 685.203125 271.640625 C 684.132812 273.433594 677.3125 272.023438 673.941406 271.984375 L 684.175781 268.957031 C 685.332031 269.675781 685.84375 270.574219 685.203125 271.640625 " fill-opacity="1" fill-rule="nonzero"/><path fill="rgb(83.529663%, 15.289307%, 25.489807%)" d="M 735.433594 307.414062 L 699.699219 317.90625 L 679.996094 299.144531 L 656.800781 277.015625 L 672.113281 272.535156 L 673.859375 271.984375 L 673.941406 271.984375 C 677.3125 272.023438 684.132812 273.433594 685.203125 271.640625 C 685.84375 270.574219 685.332031 269.675781 684.175781 268.957031 L 692.535156 266.523438 L 735.433594 307.414062 " fill-opacity="1" fill-rule="nonzero"/><path fill="rgb(87.059021%, 86.669922%, 94.898987%)" d="M 729.882812 305.257812 L 700.277344 313.96875 L 696.683594 315.027344 L 659.835938 279.910156 L 663.402344 278.863281 L 693.03125 270.160156 L 729.882812 305.257812 " fill-opacity="1" fill-rule="nonzero"/><path fill="rgb(83.529663%, 15.289307%, 25.489807%)" d="M 663.984375 328.425781 L 699.71875 317.925781 L 656.800781 277.023438 L 621.0625 287.519531 L 663.984375 328.425781 " fill-opacity="1" fill-rule="nonzero"/><path fill="rgb(87.059021%, 86.669922%, 94.898987%)" d="M 663.472656 324.789062 L 696.675781 315.027344 L 659.839844 279.917969 L 626.636719 289.671875 L 663.472656 324.789062 " fill-opacity="1" fill-rule="nonzero"/><path fill="rgb(60.778809%, 10.5896%, 18.429565%)" d="M 663.226562 331.5625 L 734.691406 310.5625 L 735.453125 307.429688 L 663.984375 328.433594 L 663.226562 331.5625 " fill-opacity="1" fill-rule="nonzero"/><path fill="rgb(76.469421%, 12.548828%, 15.689087%)" d="M 620.300781 290.660156 L 663.226562 331.5625 L 663.984375 328.433594 L 621.0625 287.527344 L 620.300781 290.660156 " fill-opacity="1" fill-rule="nonzero"/><path fill="rgb(70.588684%, 69.799805%, 87.838745%)" d="M 700.277344 313.96875 L 696.683594 315.027344 L 659.835938 279.910156 L 663.402344 278.863281 L 700.277344 313.96875 " fill-opacity="1" fill-rule="nonzero"/><path fill="rgb(70.588684%, 69.799805%, 87.838745%)" d="M 338.585938 439.835938 L 339.203125 220.726562 C 339.195312 224.125 341.417969 227.539062 345.882812 230.140625 L 345.265625 449.246094 C 340.800781 446.65625 338.578125 443.242188 338.585938 439.835938 " fill-opacity="1" fill-rule="nonzero"/><path fill="rgb(70.588684%, 69.799805%, 87.838745%)" d="M 483.632812 310.378906 L 483.019531 529.496094 L 345.265625 449.246094 L 345.882812 230.140625 L 483.632812 310.378906 " fill-opacity="1" fill-rule="nonzero"/><path fill="rgb(70.588684%, 69.799805%, 87.838745%)" d="M 521.820312 301.351562 L 521.203125 520.46875 C 521.1875 523.644531 519.28125 526.78125 515.316406 529.234375 C 506.554688 534.644531 491.984375 534.714844 483.019531 529.496094 L 483.632812 310.378906 C 492.601562 315.605469 507.171875 315.53125 515.925781 310.128906 C 519.898438 307.675781 521.804688 304.527344 521.820312 301.351562 " fill-opacity="1" fill-rule="nonzero"/><path fill="rgb(87.059021%, 86.669922%, 94.898987%)" d="M 515.945312 310.148438 C 507.15625 315.515625 492.617188 315.605469 483.625 310.402344 L 345.882812 230.144531 C 337.011719 224.988281 336.96875 216.59375 345.792969 211.429688 L 376.074219 193.691406 L 410.484375 210.875 L 409.460938 211.46875 C 400.679688 216.636719 400.722656 224.988281 409.589844 230.144531 L 514.746094 291.421875 C 523.496094 296.496094 524.390625 304.898438 515.945312 310.148438 " fill-opacity="1" fill-rule="nonzero"/><path fill="rgb(22.749329%, 28.239441%, 31.759644%)" d="M 481.660156 127.222656 C 470.125 122.015625 455.984375 128.179688 450.371094 140.445312 C 436.765625 170.160156 417.03125 223.816406 416.308594 237.335938 C 415.347656 255.242188 481.121094 319.488281 505.230469 315.945312 C 529.347656 312.398438 526.964844 293.574219 521.539062 284.554688 C 517.003906 277.015625 485.601562 244.722656 468.703125 233.265625 C 464.714844 230.558594 463.753906 225.121094 466.46875 221.140625 C 478.367188 203.699219 504.496094 162.941406 500.632812 146.585938 C 498.390625 137.101562 490.101562 131.027344 481.660156 127.222656 " fill-opacity="1" fill-rule="nonzero"/><path fill="rgb(52.549744%, 41.178894%, 34.899902%)" d="M 517.046875 290.15625 C 518.707031 290.820312 540.460938 291.773438 540.460938 294.632812 C 540.460938 297.492188 529.382812 295.9375 530.371094 299.054688 C 531.359375 302.179688 561.800781 314.121094 560.238281 317.90625 C 558.683594 321.691406 531.359375 305.984375 531.359375 309.546875 C 531.359375 313.105469 557.097656 326.121094 554.695312 330.023438 C 551.191406 335.691406 529.992188 317.5625 527.945312 319.496094 C 525.890625 321.429688 545.507812 336.421875 541.953125 339.035156 C 538.402344 341.648438 517.304688 320.652344 516.519531 322.476562 C 515.742188 324.296875 530.25 339.910156 527.945312 341.992188 C 525.632812 344.066406 493.84375 317.34375 494.773438 305.292969 C 495.707031 293.246094 511.167969 287.8125 517.046875 290.15625 " fill-opacity="1" fill-rule="nonzero"/><path fill="rgb(22.749329%, 28.239441%, 31.759644%)" d="M 617 553.9375 C 615.269531 559.335938 612.632812 585.503906 614.574219 593.265625 C 616.515625 601.039062 630.113281 603.953125 637.882812 600.554688 C 645.648438 597.15625 669.261719 614.457031 679.304688 612.847656 C 689.351562 611.234375 682.070312 597.15625 675.273438 590.84375 C 668.476562 584.527344 653.90625 553.9375 653.90625 553.9375 L 617 553.9375 " fill-opacity="1" fill-rule="nonzero"/><path fill="rgb(36.079407%, 58.039856%, 83.529663%)" d="M 830.859375 657.058594 C 829.476562 660.96875 833.851562 692.464844 832.007812 700.746094 C 830.171875 709.023438 802.347656 698.441406 798.214844 703.269531 C 794.070312 708.097656 758.660156 696.144531 753.144531 686.253906 C 747.621094 676.375 759.351562 673.226562 771.078125 671.8125 C 782.800781 670.394531 799.585938 661.425781 799.585938 661.425781 L 830.859375 657.058594 " fill-opacity="1" fill-rule="nonzero"/><path fill="rgb(19.999695%, 39.99939%, 69.799805%)" d="M 866.746094 580.308594 C 868.101562 588.417969 875.527344 610.710938 870.796875 618.144531 C 866.066406 625.574219 848.503906 620.84375 845.800781 628.269531 C 843.09375 635.707031 868.554688 641.109375 879.136719 638.410156 C 889.714844 635.707031 890.035156 648.574219 903.058594 641.199219 C 916.085938 633.828125 918.769531 602.839844 918.089844 598.671875 C 917.417969 594.5 866.746094 580.308594 866.746094 580.308594 " fill-opacity="1" fill-rule="nonzero"/><path fill="rgb(36.079407%, 58.039856%, 83.529663%)" d="M 992.464844 493.242188 C 974.402344 485.960938 916.457031 428.996094 881.871094 440.117188 C 847.285156 451.238281 855.625 508.878906 855.625 508.878906 L 992.464844 493.242188 " fill-opacity="1" fill-rule="nonzero"/><path fill="rgb(70.588684%, 69.799805%, 87.838745%)" d="M 1083.394531 736.789062 C 1081.335938 736.789062 1079.625 735.15625 1079.554688 733.074219 L 1074.214844 574.640625 L 950.847656 503.417969 L 937.34375 646.773438 C 937.140625 648.882812 935.246094 650.515625 933.152344 650.242188 C 931.035156 650.042969 929.480469 648.167969 929.683594 646.050781 L 943.75 496.726562 C 943.867188 495.421875 944.652344 494.273438 945.808594 493.671875 C 946.980469 493.074219 948.367188 493.101562 949.5 493.753906 L 1079.90625 569.039062 C 1081.0625 569.707031 1081.785156 570.917969 1081.832031 572.242188 L 1087.242188 732.816406 C 1087.3125 734.9375 1085.652344 736.71875 1083.527344 736.789062 C 1083.488281 736.789062 1083.4375 736.789062 1083.394531 736.789062 " fill-opacity="1" fill-rule="nonzero"/><path fill="rgb(33.329773%, 42.749023%, 49.409485%)" d="M 812.222656 565.859375 L 947.800781 487.082031 C 948.542969 486.648438 949.578125 486.703125 950.714844 487.363281 L 815.136719 566.140625 C 814.003906 565.488281 812.972656 565.425781 812.222656 565.859375 " fill-opacity="1" fill-rule="nonzero"/><path fill="rgb(33.329773%, 42.749023%, 49.409485%)" d="M 815.136719 566.140625 L 950.714844 487.363281 L 1083.402344 563.960938 L 947.828125 642.742188 L 815.136719 566.140625 " fill-opacity="1" fill-rule="nonzero"/><path fill="rgb(33.329773%, 42.749023%, 49.409485%)" d="M 1091.1875 564.710938 L 955.613281 643.492188 C 953.621094 644.65625 950.863281 644.496094 947.828125 642.742188 L 1083.402344 563.960938 C 1086.429688 565.710938 1089.191406 565.875 1091.1875 564.710938 " fill-opacity="1" fill-rule="nonzero"/><path fill="rgb(19.60907%, 21.958923%, 24.308777%)" d="M 1096.984375 574.683594 L 961.410156 653.464844 C 964.84375 651.46875 966.980469 647.226562 967 641.199219 L 1102.570312 562.417969 C 1102.550781 568.445312 1100.417969 572.683594 1096.984375 574.683594 " fill-opacity="1" fill-rule="nonzero"/><path fill="rgb(33.329773%, 42.749023%, 49.409485%)" d="M 1096.019531 403.84375 C 1096.753906 403.417969 1097.777344 403.472656 1098.90625 404.125 L 963.335938 482.90625 C 962.207031 482.253906 961.183594 482.191406 960.441406 482.625 L 1096.019531 403.84375 " fill-opacity="1" fill-rule="nonzero"/><path fill="rgb(56.469727%, 76.469421%, 92.158508%)" d="M 815.125 566.140625 C 814.457031 565.789062 813.835938 565.566406 813.308594 565.566406 C 813.882812 565.566406 814.5 565.746094 815.125 566.140625 " fill-opacity="1" fill-rule="nonzero"/><path fill="rgb(56.469727%, 76.469421%, 92.158508%)" d="M 969.546875 585.832031 C 968.789062 586.539062 968.039062 587.164062 967.191406 587.738281 C 964.710938 589.46875 961.960938 590.710938 958.941406 591.507812 C 927.59375 599.929688 870.46875 560.15625 850.46875 544.191406 C 850.335938 544.101562 850.199219 543.972656 850.066406 543.882812 C 846.5625 541.578125 841.953125 544.324219 842.261719 548.453125 L 812.550781 565.699219 C 812.59375 565.65625 812.683594 565.65625 812.726562 565.65625 C 812.550781 565.699219 812.417969 565.789062 812.242188 565.878906 C 811.488281 566.273438 811.046875 567.164062 811.046875 568.492188 C 810.996094 571.066406 812.859375 574.210938 815.125 575.542969 L 844.75 592.664062 C 843.417969 623.035156 837.207031 653.28125 831.53125 661.355469 C 821.332031 675.945312 801.640625 672.308594 792.902344 667.914062 C 784.167969 663.570312 766.695312 495.101562 783.0625 482.332031 C 816.589844 456.253906 884.925781 484.015625 923.597656 501.175781 C 937.257812 507.210938 947.238281 511.953125 950.652344 512.527344 C 950.652344 512.527344 954.332031 515.191406 959.167969 519.671875 C 961.695312 522.019531 964.535156 524.90625 967.324219 528.183594 C 979.96875 542.816406 991.679688 565.472656 969.546875 585.832031 " fill-opacity="1" fill-rule="nonzero"/><path fill="rgb(70.588684%, 69.799805%, 87.838745%)" d="M 960.671875 806.003906 C 960.722656 808.136719 959.082031 809.910156 956.953125 810 L 956.820312 810 C 954.738281 810 953.046875 808.359375 952.957031 806.273438 L 947.769531 652.132812 L 947.636719 647.832031 L 824.257812 576.609375 L 823.90625 580.597656 L 810.777344 719.976562 C 810.554688 722.105469 808.648438 723.65625 806.566406 723.4375 C 804.4375 723.257812 802.882812 721.355469 803.105469 719.269531 L 816.539062 576.386719 L 817.164062 569.910156 C 817.253906 569.160156 817.5625 568.402344 818.097656 567.828125 L 947.8125 642.730469 C 950.476562 644.285156 952.914062 644.585938 954.820312 643.835938 C 955.085938 644.328125 955.261719 644.851562 955.261719 645.433594 L 955.570312 654.65625 L 960.671875 806.003906 " fill-opacity="1" fill-rule="nonzero"/><path fill="rgb(83.529663%, 15.289307%, 25.489807%)" d="M 903.546875 385.203125 C 907.425781 363.164062 938.476562 356.449219 960.582031 342.824219 C 982.691406 329.203125 1017.042969 316.414062 1031.988281 325.4375 C 1059.019531 341.761719 1035.773438 426.480469 1038.65625 444.789062 C 1041.542969 463.09375 1063.492188 523.9375 1051.578125 555.613281 C 1039.671875 587.289062 949.382812 615.152344 929.835938 587.105469 C 910.277344 559.070312 924.011719 492.324219 921.449219 468.265625 C 918.890625 444.210938 899.769531 406.757812 903.546875 385.203125 " fill-opacity="1" fill-rule="nonzero"/><path fill="rgb(87.838745%, 67.059326%, 57.249451%)" d="M 934.6875 285.507812 C 932.394531 300.09375 934.230469 339.460938 943.628906 348.132812 C 953.027344 356.808594 985.566406 345.558594 999.304688 325.160156 C 1013.039062 304.757812 1022.4375 268.71875 999.304688 254.925781 C 976.167969 241.140625 940.195312 250.355469 934.6875 285.507812 " fill-opacity="1" fill-rule="nonzero"/><path fill="rgb(87.059021%, 53.729248%, 9.01947%)" d="M 928.953125 262.535156 C 930.0625 272.839844 939.144531 299.3125 944.644531 301.078125 C 950.140625 302.839844 939.144531 325.523438 944.644531 333.085938 C 950.140625 340.648438 943.753906 362.644531 951.414062 370.207031 C 959.074219 377.765625 962.515625 392.890625 977.640625 387.390625 C 992.765625 381.886719 1000.328125 352.328125 1012.007812 350.957031 C 1023.691406 349.582031 1025.757812 325.03125 1023.691406 309.125 C 1021.632812 293.21875 1016.816406 260.910156 1002.386719 249.566406 C 987.949219 238.226562 927.003906 244.511719 928.953125 262.535156 " fill-opacity="1" fill-rule="nonzero"/><path fill="rgb(87.838745%, 67.059326%, 57.249451%)" d="M 817.78125 475.933594 C 812.628906 476.082031 796.929688 469.515625 795.871094 471.667969 C 794.8125 473.816406 803.574219 474.875 803.078125 477.347656 C 802.585938 479.824219 767.25 475.933594 766.542969 479.824219 C 765.835938 483.710938 793.046875 480.886719 792.15625 484.769531 C 791.273438 488.660156 767.929688 486.367188 766.527344 489.984375 C 765.128906 493.609375 791.273438 491.105469 790.21875 493.242188 C 789.160156 495.375 767.953125 494.308594 768.667969 497.496094 C 769.367188 500.671875 795.871094 497.140625 795.523438 500.320312 C 795.164062 503.503906 780.328125 501.738281 781.386719 505.269531 C 782.445312 508.800781 836.515625 503.851562 834.746094 496.433594 C 832.972656 489.011719 817.78125 475.933594 817.78125 475.933594 " fill-opacity="1" fill-rule="nonzero"/><path fill="rgb(83.529663%, 15.289307%, 25.489807%)" d="M 929.863281 376.050781 C 921.292969 367.164062 907.832031 372.082031 904.480469 384.984375 C 897.121094 413.386719 889.117188 458.203125 882.445312 464.007812 C 873.441406 471.839844 815.195312 467.566406 811.59375 477.539062 C 807.988281 487.503906 816.394531 496.054688 827.207031 500.320312 C 838.011719 504.597656 884.253906 514.5625 901.671875 504.597656 C 919.085938 494.625 955.117188 439.085938 946.109375 405.617188 C 942.445312 392.007812 936.101562 382.519531 929.863281 376.050781 " fill-opacity="1" fill-rule="nonzero"/><path fill="rgb(33.329773%, 42.749023%, 49.409485%)" d="M 812.726562 565.65625 C 812.550781 565.699219 812.417969 565.789062 812.242188 565.878906 L 812.550781 565.699219 C 812.59375 565.65625 812.683594 565.65625 812.726562 565.65625 " fill-opacity="1" fill-rule="nonzero"/><path fill="rgb(22.749329%, 28.239441%, 31.759644%)" d="M 812.726562 565.65625 C 812.550781 565.699219 812.417969 565.789062 812.242188 565.878906 L 812.550781 565.699219 C 812.59375 565.65625 812.683594 565.65625 812.726562 565.65625 " fill-opacity="1" fill-rule="nonzero"/><g clip-path="url(#id1)"><path fill="rgb(19.60907%, 21.958923%, 24.308777%)" d="M 967.421875 489.984375 L 1103 411.210938 L 1102.570312 562.417969 L 967 641.199219 L 967.421875 489.984375 " fill-opacity="1" fill-rule="nonzero"/></g><g clip-path="url(#id2)"><path fill="rgb(33.329773%, 42.749023%, 49.409485%)" d="M 963.335938 482.90625 L 1098.90625 404.125 C 1101.167969 405.425781 1103.003906 408.609375 1103 411.210938 L 967.421875 489.984375 C 967.4375 487.390625 965.601562 484.210938 963.335938 482.90625 " fill-opacity="1" fill-rule="nonzero"/></g><path fill="rgb(22.749329%, 28.239441%, 31.759644%)" d="M 967.414062 490.003906 L 967.015625 641.222656 C 966.972656 650.136719 962.269531 655.148438 955.570312 654.65625 C 953.222656 654.566406 950.558594 653.722656 947.8125 652.132812 L 947.769531 652.132812 L 823.90625 580.597656 L 816.539062 576.386719 L 815.125 575.542969 C 812.859375 574.210938 810.996094 571.066406 811.046875 568.492188 C 811.046875 565.878906 812.859375 564.855469 815.125 566.140625 L 818.097656 567.828125 L 947.8125 642.730469 C 950.476562 644.285156 952.914062 644.585938 954.820312 643.835938 C 957.261719 642.953125 958.808594 640.375 958.808594 636.476562 L 959.257812 485.253906 C 959.257812 482.683594 961.074219 481.617188 963.335938 482.90625 C 965.601562 484.1875 967.414062 487.386719 967.414062 490.003906 " fill-opacity="1" fill-rule="nonzero"/></svg>